<?xml version="1.0" encoding="UTF-8"?>
<svg id="_레이어_1" data-name="레이어_1" xmlns="http://www.w3.org/2000/svg" version="1.1" viewBox="0 0 613.77 153.46">
  <!-- Generator: Adobe Illustrator 29.8.6, SVG Export Plug-In . SVG Version: 2.1.1 Build 1)  -->
  <polygon points="591.4 3.28 540.32 75.44 489.24 3.28 466.86 3.28 466.86 150.2 487.23 150.2 487.23 34.28 540.32 111.07 593.4 34.28 593.4 150.2 613.77 150.2 613.77 3.28 591.4 3.28"/>
  <path d="M363.25,18.79c15.98,0,30.42,6.55,40.91,17.05l13.79-13.79C403.82,8.47,384.56.02,363.25.02c-43.18,0-78.31,34.42-78.31,76.73s35.13,76.72,78.31,76.72c21.31,0,40.57-8.46,54.7-22.03l-13.79-13.79c-10.49,10.5-24.93,17.05-40.91,17.05-31.96,0-57.96-26-57.96-57.96s26-57.96,57.96-57.96"/>
  <path d="M187.83,0c-27.99,0-50.68,21.99-50.68,49.12s22.12,47.89,49.41,47.89c1.74,0,3.37-.32,5.05-.49l-37.99,53.66h24.89l51.86-75c5.3-7.66,8.14-16.75,8.14-26.07,0-27.13-22.69-49.12-50.69-49.12M187.83,79.46c-16.75,0-30.34-13.59-30.34-30.34s13.59-30.34,30.34-30.34,30.34,13.58,30.34,30.34-13.58,30.34-30.34,30.34"/>
  <path d="M93.15,45.04C93.15,20.16,72.3,0,46.58,0S0,20.16,0,45.04h20.34c0-14.5,11.74-26.25,26.23-26.25s26.23,11.76,26.23,26.25c0,6.31-2.43,12.39-6.78,16.97L0,131.41v18.79h93.15v-18.79H27.12l54.34-57.12c7.5-7.89,11.69-18.36,11.69-29.25"/>
</svg>
