<?xml version="1.0" encoding="UTF-8"?>
<svg id="_레이어_1" data-name="레이어_1" xmlns="http://www.w3.org/2000/svg" version="1.1" viewBox="0 0 450 194.5">
  <!-- Generator: Adobe Illustrator 29.8.6, SVG Export Plug-In . SVG Version: 2.1.1 Build 1)  -->
  <path d="M134.38,164.17c0-10.92-7.56-19.87-19.18-19.87s-19.17,8.95-19.17,19.87,7.56,19.87,19.17,19.87,19.18-8.95,19.18-19.87M84.99,164.17c0-16.85,12.32-30.21,29.39-30.21,11.97,0,18.48,6.86,19.76,8.25l2.09-6.86h8.71v58.1h-8.71l-2.09-7.32c-1.98,2.56-8.95,8.25-19.76,8.25-17.08,0-29.39-13.37-29.39-30.22"/>
  <path d="M159.55,193.46v-58.1h7.21l2.21,4.53c1.63-1.86,5.11-5.81,14.41-5.81,10.58,0,19.52,7.56,19.52,19.41v39.98h-11.04v-36.84c0-4.76-1.16-7.67-3.02-9.53-1.98-1.98-4.65-3.02-7.67-3.02s-5.7,1.05-7.67,3.02c-1.86,1.86-3.02,4.65-3.02,9.53v36.84h-10.92Z"/>
  <path d="M263.55,164.17c0-10.92-7.56-19.87-19.18-19.87s-19.17,8.95-19.17,19.87,7.56,19.87,19.17,19.87,19.18-8.95,19.18-19.87M214.17,164.17c0-16.85,12.32-30.21,29.4-30.21,11.97,0,18.48,6.86,19.76,8.25v-30.1h10.81v81.35h-7.2l-3.26-8.02c-1.98,2.56-8.25,8.95-20.1,8.95-17.08,0-29.4-13.37-29.4-30.22"/>
  <path d="M334.59,164.17c0-10.92-7.55-19.87-19.17-19.87s-19.17,8.95-19.17,19.87,7.56,19.87,19.17,19.87,19.17-8.95,19.17-19.87M285.21,164.17c0-16.85,12.32-30.21,29.39-30.21,11.97,0,18.48,6.86,19.76,8.25l2.09-6.86h8.71v58.1h-8.71l-2.09-7.32c-1.98,2.56-8.95,8.25-19.76,8.25-17.08,0-29.39-13.37-29.39-30.22"/>
  <path d="M385.66,144.3h-5.12c-7.2,0-11.04,4.3-11.04,12.43v36.72h-10.92v-58.1h7.21l2.56,5.23c1.05-1.98,4.88-6.51,12.2-6.51,2.09,0,4.3.23,5.12.46v9.76Z"/>
  <path d="M439.43,164.17c0-10.92-7.56-19.87-19.18-19.87s-19.17,8.95-19.17,19.87,7.56,19.87,19.17,19.87,19.18-8.95,19.18-19.87M390.04,164.17c0-16.85,12.32-30.21,29.4-30.21,11.97,0,18.48,6.86,19.76,8.25v-30.1h10.81v81.35h-7.2l-3.26-8.02c-1.98,2.56-8.25,8.95-20.1,8.95-17.08,0-29.4-13.37-29.4-30.22"/>
  <path d="M0,176.02h10.69c0,5.23,3.02,9.07,8.71,9.07s8.6-3.83,8.6-8.02c0-4.53-3.14-6.39-7.21-7.79l-3.83-1.28c-9.64-3.26-16.15-6.86-16.15-17.08,0-8.14,5.81-16.85,18.36-16.85,11.27,0,18.59,6.86,18.59,18.13h-10.81v-.35c0-5-2.79-8.37-7.79-8.37s-7.67,3.49-7.67,7.44c0,4.53,3.95,6.39,8.71,7.9l3.95,1.28c8.02,2.56,14.52,6.39,14.52,16.97s-8.95,17.43-19.4,17.43c-11.85,0-19.29-7.78-19.29-18.48"/>
  <path d="M54.7,145.11h-8.25v-9.76h8.25v-15.92h10.81v15.92h11.74v9.76h-11.74v31.84c0,4.19,1.63,6.86,6.39,6.86h5.34v9.41c-1.86.23-4.88.58-7.9.58-8.25,0-14.64-3.72-14.64-15.57v-33.12Z"/>
  <path d="M73.23,45.67v36.84h-10.92v-36.84c0-4.76-1.16-7.67-3.02-9.53-1.98-1.98-4.65-3.02-7.67-3.02s-5.7,1.05-7.67,3.02c-1.86,1.86-3.02,4.65-3.02,9.53v36.84h-10.92V24.4h7.2l2.21,4.53c1.62-1.86,5.11-5.81,14.41-5.81,6.16,0,11.74,2.56,15.34,6.97,4.65-4.76,10.23-6.97,17.08-6.97,10.58,0,19.41,7.55,19.41,19.41v39.98h-10.92v-36.84c0-4.76-1.16-7.67-3.02-9.53-1.97-1.98-4.65-3.02-7.67-3.02s-5.69,1.05-7.67,3.02c-1.86,1.86-3.14,4.65-3.14,9.53"/>
  <path d="M163.99,24.4v58.1h-7.21l-2.2-4.42c-1.28,1.63-5.58,5.7-14.41,5.7-10.58,0-19.52-7.56-19.52-19.41V24.4h11.04v36.84c0,4.76,1.16,7.67,3.02,9.53,1.97,1.98,4.64,3.02,7.67,3.02s5.7-1.05,7.67-3.02c1.86-1.86,3.02-4.65,3.02-9.53V24.4h10.92Z"/>
  <path d="M177.12,65.08h10.69c0,5.23,3.02,9.07,8.71,9.07s8.6-3.83,8.6-8.02c0-4.53-3.14-6.39-7.21-7.79l-3.83-1.28c-9.65-3.26-16.15-6.86-16.15-17.08,0-8.14,5.81-16.85,18.36-16.85,11.27,0,18.59,6.86,18.59,18.13h-10.81v-.35c0-5-2.79-8.37-7.79-8.37s-7.67,3.49-7.67,7.44c0,4.53,3.95,6.39,8.71,7.9l3.95,1.28c8.02,2.56,14.53,6.39,14.53,16.97s-8.95,17.43-19.41,17.43c-11.85,0-19.29-7.79-19.29-18.48"/>
  <path d="M229.46,24.4h10.92v58.1h-10.92V24.4ZM242.7,7.9c0,4.3-3.49,7.67-7.79,7.67s-7.78-3.37-7.78-7.67,3.48-7.9,7.78-7.9,7.79,3.49,7.79,7.9"/>
  <path d="M257.12,82.51V24.4h7.21l2.21,4.53c1.62-1.86,5.11-5.81,14.41-5.81,10.58,0,19.52,7.56,19.52,19.41v39.98h-11.04v-36.84c0-4.76-1.16-7.67-3.02-9.53-1.98-1.98-4.65-3.02-7.67-3.02s-5.7,1.05-7.67,3.02c-1.86,1.86-3.02,4.65-3.02,9.53v36.84h-10.92Z"/>
  <path d="M313.6,65.08h10.69c0,5.23,3.02,9.07,8.71,9.07s8.6-3.83,8.6-8.02c0-4.53-3.14-6.39-7.21-7.79l-3.83-1.28c-9.65-3.26-16.15-6.86-16.15-17.08,0-8.14,5.81-16.85,18.36-16.85,11.27,0,18.59,6.86,18.59,18.13h-10.81v-.35c0-5-2.79-8.37-7.79-8.37s-7.67,3.49-7.67,7.44c0,4.53,3.95,6.39,8.71,7.9l3.95,1.28c8.02,2.56,14.53,6.39,14.53,16.97s-8.95,17.43-19.41,17.43c-11.85,0-19.29-7.79-19.29-18.48"/>
  <path d="M411.19,53.22c0-10.92-7.56-19.87-19.18-19.87s-19.17,8.95-19.17,19.87,7.56,19.87,19.17,19.87,19.18-8.95,19.18-19.87M361.8,53.22c0-16.85,12.32-30.21,29.39-30.21,11.97,0,18.48,6.86,19.76,8.25l2.09-6.86h8.71v58.1h-8.71l-2.09-7.32c-1.98,2.56-8.95,8.25-19.76,8.25-17.08,0-29.39-13.37-29.39-30.22"/>
</svg>