<?xml version="1.0" encoding="UTF-8"?>
<svg id="_레이어_1" data-name="레이어_1" xmlns="http://www.w3.org/2000/svg" version="1.1" viewBox="0 0 1163.98 217.36">
  <!-- Generator: Adobe Illustrator 29.8.6, SVG Export Plug-In . SVG Version: 2.1.1 Build 1)  -->
  <defs>
    <style>
      .st0 {
        fill: #060001;
      }
    </style>
  </defs>
  <rect class="st0" x="569.12" y="3.59" width="50.04" height="210.17"/>
  <polygon class="st0" points="758.44 128.99 757.27 128.99 695.75 3.6 646.3 3.6 646.3 213.76 692.21 213.76 692.21 88.37 693.69 88.37 755.21 213.76 804.36 213.76 804.36 3.6 758.44 3.6 758.44 128.99"/>
  <path class="st0" d="M325.04,160.32c0,8.37-6.78,15.15-15.15,15.15h-25.93c-8.36,0-15.14-6.78-15.14-15.15V3.59h-50.04v160.17c0,29.6,23.99,53.59,53.59,53.59h49.11c29.6,0,53.59-23.99,53.59-53.59V3.59h-50.04v156.73Z"/>
  <path class="st0" d="M504.89,96.87l-37.31-19.29c-5.52-2.96-18.39-8.29-18.39-17.9v-3.24c0-8.36,6.78-15.15,15.15-15.15h14.2c8.36,0,15.14,6.78,15.14,15.15v12.84h50.04v-15.7C543.72,23.99,519.73,0,490.13,0h-37.39c-29.6,0-53.59,23.99-53.59,53.59v8.89c0,30.26,23.43,43.74,35.99,50.87l40.47,21.09c8.98,4.67,21.8,10.35,21.8,20.99v4.89c0,8.36-6.78,15.14-15.15,15.14h-20.33c-8.36,0-15.15-6.78-15.15-15.15v-17.04h-50.04v20.48c0,29.6,23.99,53.59,53.59,53.59h43.52c29.6,0,53.59-23.99,53.59-53.59v-9.84c0-36.06-26.1-48.57-42.56-57.05"/>
  <path class="st0" d="M934.17,96.87l-37.31-19.29c-5.52-2.96-18.39-8.29-18.39-17.9v-3.24c0-8.36,6.78-15.15,15.15-15.15h14.2c8.36,0,15.14,6.78,15.14,15.15v12.84h50.04v-15.7C973,23.99,949.01,0,919.41,0h-37.39c-29.6,0-53.59,23.99-53.59,53.59v8.89c0,30.26,23.42,43.74,35.99,50.87l40.47,21.09c8.98,4.67,21.8,10.35,21.8,20.99v4.89c0,8.36-6.78,15.14-15.15,15.14h-20.33c-8.36,0-15.15-6.78-15.15-15.15v-17.04h-50.04v20.48c0,29.6,23.99,53.59,53.59,53.59h43.52c29.6,0,53.59-23.99,53.59-53.59v-9.84c0-36.06-26.1-48.57-42.56-57.05"/>
  <polygon class="st0" points="124.2 3.6 96.38 106.9 95.27 106.9 67.45 3.6 0 3.6 0 213.76 46.8 213.76 46.8 78.81 48.09 78.81 73.18 167.53 118.47 167.53 143.55 78.81 144.85 78.81 144.85 213.76 191.65 213.76 191.65 3.6 124.2 3.6"/>
  <path class="st0" d="M1105.11,3.59h-62.41l-58.87,210.17h51.81l8.43-34.44h59.67l8.43,34.44h51.81L1105.11,3.59ZM1054.3,137.52l19.02-77.71h1.18l19.02,77.71h-39.21Z"/>
</svg>