<?xml version="1.0" encoding="UTF-8"?>
<svg id="_레이어_1" data-name="레이어_1" xmlns="http://www.w3.org/2000/svg" version="1.1" viewBox="0 0 702.75 190.94">
  <!-- Generator: Adobe Illustrator 29.8.6, SVG Export Plug-In . SVG Version: 2.1.1 Build 1)  -->
  <g>
    <path d="M0,2.14h32.93l27.16,52.71L87.25,2.14h32.83v76.45h-21.28V22.24l-28.76,56.35h-19.78L21.28,22.03v56.56H0V2.14Z"/>
    <path d="M146.33,70.68c-7.31-6.7-10.96-16.5-10.96-29.4V2.14h21.28v38.39c0,6.49,1.82,11.82,5.45,15.99,3.63,4.17,10.01,6.26,19.14,6.26s15.4-2.09,19.03-6.26c3.63-4.17,5.45-9.5,5.45-15.99V2.14h21.28v39.13c0,12.83-3.65,22.61-10.96,29.35-7.31,6.74-18.91,10.1-34.81,10.1s-27.6-3.35-34.91-10.05Z"/>
    <path d="M253.03,74.34c-8.09-4.26-12.35-11.33-12.78-21.2h22.22c0,4.08,2.04,7.1,6.12,9.07,4.08,1.97,10.77,2.95,20.07,2.95,6.01,0,10.7-.3,14.06-.91,3.36-.61,5.72-1.52,7.08-2.74,1.36-1.22,2.04-2.86,2.04-4.94s-.63-3.74-1.88-4.78c-1.25-1.04-3.53-1.84-6.82-2.42-3.29-.57-8.52-1.07-15.67-1.5l-3.97-.21c-9.95-.57-17.96-1.77-24.05-3.6-6.08-1.82-10.54-4.46-13.37-7.89-2.83-3.44-4.24-7.87-4.24-13.31,0-7.59,3.72-13.29,11.17-17.12,7.44-3.83,17.96-5.74,31.56-5.74,14.82,0,26.12,2.22,33.92,6.66,7.8,4.44,11.88,10.99,12.24,19.65h-22.12c0-3.93-1.99-6.71-5.96-8.32-3.97-1.61-10.18-2.41-18.63-2.41-7.44,0-12.65.59-15.62,1.77-2.97,1.18-4.46,3.06-4.46,5.64,0,1.93.61,3.44,1.82,4.51,1.22,1.07,3.42,1.92,6.6,2.52,3.18.61,8,1.16,14.44,1.66l4.4.32c10.38.79,18.45,1.81,24.21,3.06,5.76,1.25,10.29,3.49,13.58,6.71,3.29,3.22,4.94,7.91,4.94,14.06,0,9.02-3.76,15.42-11.27,19.22-7.51,3.79-18.64,5.69-33.39,5.69-16.1,0-28.2-2.13-36.29-6.39Z"/>
    <path d="M347.22,2.14h21.28v76.45h-21.28V2.14Z"/>
    <path d="M383.79,2.14h31.44l45.66,56.46V2.14h21.28v76.45h-31.44l-45.66-56.67v56.67h-21.28V2.14Z"/>
    <path d="M508.18,74.34c-8.09-4.26-12.35-11.33-12.78-21.2h22.22c0,4.08,2.04,7.1,6.12,9.07,4.08,1.97,10.77,2.95,20.07,2.95,6.01,0,10.7-.3,14.06-.91,3.36-.61,5.72-1.52,7.08-2.74,1.36-1.22,2.04-2.86,2.04-4.94s-.63-3.74-1.88-4.78c-1.25-1.04-3.53-1.84-6.82-2.42-3.29-.57-8.52-1.07-15.67-1.5l-3.97-.21c-9.95-.57-17.96-1.77-24.05-3.6-6.08-1.82-10.54-4.46-13.37-7.89-2.83-3.44-4.24-7.87-4.24-13.31,0-7.59,3.72-13.29,11.17-17.12,7.44-3.83,17.96-5.74,31.56-5.74,14.82,0,26.12,2.22,33.92,6.66,7.8,4.44,11.88,10.99,12.24,19.65h-22.12c0-3.93-1.99-6.71-5.96-8.32-3.97-1.61-10.18-2.41-18.63-2.41-7.44,0-12.65.59-15.62,1.77-2.97,1.18-4.46,3.06-4.46,5.64,0,1.93.61,3.44,1.82,4.51,1.22,1.07,3.42,1.92,6.6,2.52,3.18.61,8,1.16,14.44,1.66l4.4.32c10.38.79,18.45,1.81,24.21,3.06,5.76,1.25,10.29,3.49,13.58,6.71,3.29,3.22,4.94,7.91,4.94,14.06,0,9.02-3.76,15.42-11.27,19.22s-18.64,5.69-33.39,5.69c-16.1,0-28.2-2.13-36.29-6.39Z"/>
    <path d="M635.5,2.14h27.05l40.2,76.45h-22.67l-7.7-15.4h-46.83l-7.7,15.4h-22.67L635.5,2.14ZM664.69,47.8l-15.72-31.44-15.72,31.44h31.44Z"/>
  </g>
  <g>
    <path d="M105.58,173.3c6.1,0,10.27-1.39,10.27-8.24s-4.92-8.02-10.27-8.02h-35.07v16.25h35.07ZM101.3,143.9c6.1,0,11.02-1.18,11.02-8.13,0-6.52-4.17-7.91-11.02-7.91h-30.79v16.04h30.79ZM49.23,112.35h58.6c19.25,0,25.77,7.81,25.77,18.82,0,8.98-5.35,14.86-13.37,17.75,9.62,2.35,17.64,7.59,17.64,18.93,0,12.51-7.59,20.96-25.55,20.96h-63.09v-76.45Z"/>
    <polygon points="151.12 112.35 228.21 112.35 228.21 128.5 172.4 128.5 172.4 143.15 226.07 143.15 226.07 157.9 172.4 157.9 172.4 172.66 228.21 172.66 228.21 188.81 151.12 188.81 151.12 112.35"/>
    <path d="M309.1,158.01l-15.72-31.43-15.72,31.43h31.44ZM279.91,112.35h27.05l40.2,76.45h-22.67l-7.7-15.4h-46.83l-7.7,15.4h-22.66l40.31-76.45Z"/>
    <path d="M349.2,151.49v-39.13h21.28v38.38c0,11.12,4.7,22.24,24.59,22.24s24.49-11.23,24.49-22.24v-38.38h21.28v39.13c0,24.81-12.94,39.46-45.77,39.46s-45.87-14.54-45.87-39.46"/>
    <polygon points="452.23 112.35 542.15 112.35 542.15 130.32 507.93 130.32 507.93 188.81 486.66 188.81 486.66 130.32 452.23 130.32 452.23 112.35"/>
    <polygon points="590.33 163.25 548.2 112.35 574.72 112.35 600.91 145.39 627.11 112.35 653.52 112.35 611.5 163.25 611.5 188.8 590.33 188.8 590.33 163.25"/>
  </g>
</svg>