<?xml version="1.0" encoding="UTF-8"?>
<svg id="_레이어_1" data-name="레이어_1" xmlns="http://www.w3.org/2000/svg" version="1.1" viewBox="0 0 1013.89 168.46">
  <!-- Generator: Adobe Illustrator 29.8.6, SVG Export Plug-In . SVG Version: 2.1.1 Build 1)  -->
  <polygon points="147.58 2.37 175.82 2.37 175.82 168.46 152.09 168.46 152.09 37.49 98.7 123.62 76.88 123.62 23.73 37.49 23.73 168.46 0 168.46 0 2.37 28.23 2.37 87.79 98.94 147.58 2.37"/>
  <path d="M317.45,98.94V2.38h23.96v96.33c0,45.32-25.87,72.13-64.78,72.13s-64.78-26.81-64.78-72.13V2.38h23.97v96.57c0,30.13,15.66,48.64,40.81,48.64s40.81-18.5,40.81-48.64"/>
  <path d="M452.83,122.43c0-17.56-11.15-20.88-30.37-28l-11.39-4.27c-12.58-4.75-21.12-9.26-27.29-16.85-6.17-7.59-9.96-16.13-9.96-28,0-21.35,15.9-45.32,50.54-45.32,31.8,0,51.02,19.22,51.02,49.59h-25.15v-3.09c0-15.19-10.68-23.49-25.87-23.49s-25.39,8.3-25.39,21.83c0,11.86,6.64,17.79,27.52,25.62l9.5,3.56c14.71,5.46,23.49,10.2,30.61,17.79,7.11,7.59,11.38,16.14,11.38,29.66,0,26.33-22.07,49.35-53.38,49.35s-54.81-19.45-54.81-53.15h25.15v2.37c0,17.32,12.34,27.76,29.66,27.76s28.24-9.96,28.24-25.39"/>
  <rect x="508.19" y="2.37" width="24.2" height="166.09"/>
  <polygon points="592.89 39.86 592.89 168.46 569.17 168.46 569.17 2.37 595.5 2.37 682.1 131.69 682.1 2.37 705.83 2.37 705.83 168.46 679.26 168.46 592.89 39.86"/>
  <path d="M817.26,122.43c0-17.56-11.16-20.88-30.37-28l-11.39-4.27c-12.57-4.75-21.12-9.26-27.29-16.85-6.16-7.59-9.96-16.13-9.96-28,0-21.35,15.9-45.32,50.54-45.32,31.79,0,51.01,19.22,51.01,49.59h-25.15v-3.09c0-15.19-10.68-23.49-25.86-23.49s-25.39,8.3-25.39,21.83c0,11.86,6.63,17.79,27.52,25.62l9.49,3.56c14.71,5.46,23.49,10.2,30.61,17.79,7.11,7.59,11.38,16.14,11.38,29.66,0,26.33-22.07,49.35-53.38,49.35s-54.81-19.45-54.81-53.15h25.16v2.37c0,17.32,12.34,27.76,29.66,27.76s28.24-9.96,28.24-25.39"/>
  <path d="M933.69,30.85l-27.53,67.86h55.05l-27.52-67.86ZM970.71,122.2h-74.03l-18.74,46.26h-24.43L920.64,2.37h26.11l67.14,166.09h-24.44l-18.74-46.26Z"/>
</svg>